<svg width="96" height="96" viewBox="0 0 96 96" fill="none" xmlns="http://www.w3.org/2000/svg">
  <rect width="96" height="96" rx="24" fill="#6BA319"/>
  <path d="M48 24C61.255 24 72 34.7452 72 48C72 53.6975 70.0135 58.9311 66.6976 63.0491L72.4853 68.8368L66.8284 74.4937L60.9856 68.6509C57.2888 71.3908 52.7145 73 47.7647 73C34.5099 73 23.7647 62.2548 23.7647 49C23.7647 35.7452 34.5099 25 47.7647 25H48V24ZM47.7647 33C38.9281 33 31.7647 40.1634 31.7647 49C31.7647 57.8366 38.9281 65 47.7647 65C56.6012 65 63.7647 57.8366 63.7647 49C63.7647 40.1634 56.6012 33 47.7647 33Z" fill="white"/>
</svg>
