<svg width="96" height="96" viewBox="0 0 96 96" fill="none" xmlns="http://www.w3.org/2000/svg">
  <rect width="96" height="96" rx="24" fill="#2F0A46"/>
  <path d="M63.832 31.104H42.664C38.024 31.104 35.128 33.648 35.128 37.824C35.128 41.36 37.08 43.344 41.96 44.576L51.896 47.088C54.824 47.848 55.88 48.608 55.88 50.528C55.88 52.864 54.12 54.128 50.776 54.128H31.84V64H53.08C59.032 64 63.608 60.632 63.608 54.792C63.608 49.776 60.968 46.816 55.704 45.488L45.736 42.976C42.872 42.248 42.216 41.616 42.216 40C42.216 38.176 43.592 36.976 46.456 36.976H63.832V31.104Z" fill="white"/>
</svg>
